<svg version="1.1" id="Layer_1" xmlns="http://www.w3.org/2000/svg" xmlns:xlink="http://www.w3.org/1999/xlink" x="0px" y="0px"
	 width="100%" viewBox="0 0 357 270" enable-background="new 0 0 357 270" xml:space="preserve">
<path fill="#F5FAFE" opacity="1.000000" stroke="none" 
	d="
M320.216217,270.661499 
	C233.312439,271.000000 146.624878,271.000000 59.468658,271.000000 
	C57.847919,268.153534 60.177837,267.490936 61.897728,266.868469 
	C65.740387,265.477753 68.908897,263.092255 72.103371,260.683746 
	C101.087120,238.831100 133.423019,225.207397 169.693787,221.856735 
	C221.007172,217.116440 267.283691,230.337891 308.218231,261.804230 
	C310.874298,263.845947 313.515991,265.804657 316.771484,266.834167 
	C318.485016,267.376068 320.371643,267.950256 320.216217,270.661499 
z"/>
<path fill="#F2F8FD" opacity="1.000000" stroke="none" 
	d="
M320.468658,271.000000 
	C319.895172,270.141266 319.662750,269.179352 318.777130,268.993622 
	C309.863953,267.124451 304.200684,260.039368 297.113098,255.320816 
	C272.816833,239.145569 246.479004,228.067123 217.582809,224.238907 
	C164.002060,217.140396 115.160088,229.331665 72.127396,262.580872 
	C68.018181,265.755859 62.912594,266.840942 59.059128,270.648132 
	C49.645771,271.000000 40.291542,271.000000 30.468657,271.000000 
	C28.708620,268.915100 30.544878,267.997345 31.616077,266.886993 
	C65.005089,232.278122 105.316589,210.425949 152.561951,201.443817 
	C159.912140,200.046432 167.345322,199.102554 174.823807,198.627869 
	C176.493652,198.521866 178.145126,198.414871 179.993973,197.379852 
	C182.091644,197.026291 183.664093,197.583755 185.219681,198.170181 
	C197.778168,202.904572 210.163025,203.268936 222.289703,196.747269 
	C222.727798,196.511658 223.241486,196.466858 224.124115,196.459198 
	C225.999344,199.900665 228.877167,200.794662 232.278320,201.498566 
	C269.595398,209.221634 302.601959,225.579163 331.326263,250.735291 
	C337.715118,256.330505 343.182953,262.914185 350.139374,267.865906 
	C350.973816,268.459869 351.591278,269.247589 351.215942,270.695312 
	C340.979095,271.000000 330.958221,271.000000 320.468658,271.000000 
z"/>
<path fill="#00B7F0" opacity="1.000000" stroke="none" 
	d="
M357.704437,51.700073 
	C358.000000,57.688042 358.000000,63.376083 358.000000,69.532059 
	C355.621429,71.753708 353.538818,70.282173 351.485657,69.309982 
	C322.120605,55.405354 291.462250,45.456894 259.529236,39.540775 
	C238.551086,35.654232 217.406418,33.717262 196.017181,33.307964 
	C159.426620,32.607784 123.620956,37.145401 88.349274,46.657166 
	C61.358959,53.935692 35.776211,64.669693 11.030437,77.547195 
	C8.153599,79.044273 5.275044,81.189568 1.336107,79.251648 
	C1.000000,73.311958 1.000000,67.623917 1.000000,61.467941 
	C14.885852,53.394825 29.232838,46.773483 43.992691,41.063644 
	C71.426781,30.450781 99.619644,22.582603 128.738297,18.258305 
	C153.147141,14.633444 177.718079,12.611108 202.384857,13.640416 
	C255.021210,15.836850 305.569733,27.323044 353.719025,48.931343 
	C355.093506,49.548191 356.464966,50.149193 357.704437,51.700073 
z"/>
<path fill="#00B3F0" opacity="1.000000" stroke="none" 
	d="
M358.000000,51.532394 
	C341.739655,45.749363 325.801300,38.650928 309.109283,33.537384 
	C287.542999,26.930637 265.677826,21.799139 243.264038,18.897005 
	C222.177048,16.166666 201.045105,14.325357 179.802399,15.106701 
	C165.438797,15.635020 151.112564,16.935476 136.805847,18.720938 
	C109.358360,22.146358 82.789902,28.882645 56.730961,37.931747 
	C39.762260,43.824226 23.330389,50.943710 7.420122,59.274841 
	C5.649323,60.202091 3.909600,61.227867 1.392719,60.999367 
	C1.000000,55.311958 1.000000,49.623920 1.000000,43.467941 
	C25.958773,31.061726 51.442360,20.523268 78.198692,13.198148 
	C97.656525,7.871149 117.329407,3.781448 137.687271,1.249285 
	C171.354233,1.000000 204.708450,1.000000 238.531342,1.000000 
	C246.232407,2.798533 253.684998,3.209127 261.003418,4.515081 
	C292.586365,10.150994 323.132416,19.199800 352.631531,31.794567 
	C354.305206,32.509151 356.041534,33.154758 357.695374,34.733253 
	C358.000000,40.354931 358.000000,45.709858 358.000000,51.532394 
z"/>
<path fill="#00BCF1" opacity="1.000000" stroke="none" 
	d="
M1.000000,79.464645 
	C3.551940,79.206017 5.881790,78.665016 8.181869,77.439911 
	C27.276636,67.269295 46.954494,58.354679 67.442322,51.409264 
	C86.286011,45.021214 105.649063,40.566921 125.224678,36.943726 
	C152.137589,31.962484 179.298019,31.339645 206.506927,32.074547 
	C234.065201,32.818882 261.134094,37.299793 287.753052,44.423763 
	C310.254761,50.445847 332.083466,58.323807 353.059479,68.505730 
	C354.382355,69.147873 355.845703,69.500763 357.621826,69.994110 
	C358.000000,74.024544 358.000000,78.049088 358.000000,82.536819 
	C355.617889,84.760521 353.511322,83.318619 351.489166,82.294899 
	C328.937805,70.878120 305.246674,62.491169 280.861328,56.075035 
	C262.304749,51.192543 243.406143,48.100266 224.281830,46.341652 
	C211.509171,45.167110 198.743301,44.170830 185.903336,44.442661 
	C137.415176,45.469196 90.637077,54.622189 45.893982,73.650406 
	C32.997284,79.135078 20.440681,85.271584 8.189725,92.059891 
	C6.183875,93.171341 4.207253,94.675995 1.335842,93.246277 
	C1.000000,88.643097 1.000000,84.286201 1.000000,79.464645 
z"/>
<path fill="#EEF5FC" opacity="1.000000" stroke="none" 
	d="
M351.497925,271.000000 
	C345.581635,265.754883 340.351746,260.296265 334.704254,255.310715 
	C324.151245,245.994690 313.095947,237.333801 301.032867,229.965103 
	C278.276855,216.064728 253.897110,206.515839 227.594543,202.082901 
	C224.044922,201.484650 224.112015,199.865387 224.855194,196.938324 
	C227.015549,191.983749 230.266159,188.187836 233.902130,184.308182 
	C250.771698,187.489258 266.851624,192.278214 282.173431,199.238815 
	C302.986969,208.694275 322.680817,220.102997 339.993500,235.196777 
	C345.987366,240.422455 352.411804,245.228104 357.737366,251.734955 
	C358.000000,256.412506 357.576080,260.877014 358.109344,265.224121 
	C358.748627,270.435516 356.875702,272.078400 351.497925,271.000000 
z"/>
<path fill="#00B0EF" opacity="1.000000" stroke="none" 
	d="
M137.531342,1.000000 
	C136.487640,4.754520 132.719620,3.430307 130.262665,3.749374 
	C103.246841,7.257729 77.082664,14.181285 51.441105,23.102491 
	C36.894680,28.163481 22.614029,33.998444 8.886882,41.066814 
	C6.651618,42.217793 4.443370,43.346169 1.407112,42.999947 
	C1.000000,30.530624 1.141386,18.058630 0.910489,5.593530 
	C0.844556,2.034149 1.412395,0.870805 5.386540,0.887068 
	C49.278004,1.066677 93.170479,1.000000 137.531342,1.000000 
z"/>
<path fill="#05C0F2" opacity="1.000000" stroke="none" 
	d="
M1.000000,93.444168 
	C6.439068,92.811539 10.512198,89.280823 14.925632,86.892380 
	C38.686337,74.033615 63.628864,64.277290 89.579010,56.848751 
	C106.646828,51.962883 124.012535,48.609665 141.531204,46.199894 
	C162.082092,43.373013 182.831955,41.929451 203.552063,43.128399 
	C236.158905,45.015163 268.334534,49.783745 299.552094,59.964901 
	C317.887970,65.944885 335.891815,72.662521 353.063171,81.502251 
	C354.366455,82.173180 355.846344,82.500984 357.622070,82.994141 
	C358.000000,85.041664 358.000000,87.083336 358.000000,89.562500 
	C355.175171,91.941536 352.874939,89.979294 350.595428,88.843803 
	C326.176605,76.679939 300.722015,67.333580 274.179596,61.079170 
	C247.999420,54.910126 221.511444,51.614693 194.514603,51.271954 
	C158.378098,50.813175 123.063080,55.355377 88.424599,65.412956 
	C60.292747,73.581276 33.513214,84.978798 8.146315,99.662949 
	C6.166928,100.808762 4.266302,102.416595 1.339660,101.240654 
	C1.000000,98.629440 1.000000,96.258888 1.000000,93.444168 
z"/>
<path fill="#E3F0FA" opacity="1.000000" stroke="none" 
	d="
M357.732300,211.730377 
	C358.000000,218.354401 358.000000,224.708786 358.000000,231.531586 
	C354.564148,233.486649 352.706421,230.725616 350.783844,228.974579 
	C334.780853,214.399506 316.702454,202.932556 297.464050,193.228851 
	C280.744537,184.795654 263.036652,179.013306 244.941254,174.374847 
	C240.880539,173.333954 237.241730,171.973923 236.293701,166.834930 
	C235.652130,165.144318 235.128311,163.797363 235.113525,161.975555 
	C235.226761,160.715652 235.344986,159.805969 235.093842,158.543732 
	C234.918137,157.210358 234.982620,156.249847 235.641083,155.039230 
	C239.532196,153.690048 242.633682,155.891937 245.958023,156.607681 
	C286.832642,165.407791 323.245300,183.517899 355.771210,209.642700 
	C356.426727,210.169189 356.938171,210.819427 357.732300,211.730377 
z"/>
<path fill="#E9F4FB" opacity="1.000000" stroke="none" 
	d="
M236.726196,166.253235 
	C238.092957,170.628922 241.401474,172.137955 245.754944,173.208969 
	C274.691650,180.327835 301.800323,191.827469 326.583008,208.438934 
	C335.372406,214.330353 343.999634,220.541885 351.609314,228.020264 
	C353.225494,229.608597 355.390411,230.638550 357.651245,231.962875 
	C358.000000,238.354401 358.000000,244.708786 358.000000,251.531586 
	C352.704773,249.968369 349.423767,245.312881 345.485565,241.721832 
	C323.369293,221.554855 298.103149,206.807053 270.366547,195.879730 
	C258.591034,191.240555 246.219910,188.800812 233.832886,184.867249 
	C232.469543,182.011917 234.185013,179.686584 234.814880,176.821777 
	C235.168671,175.588211 235.306885,174.679428 235.189896,173.384659 
	C235.398117,170.813766 235.447754,168.567886 236.726196,166.253235 
z"/>
<path fill="#DAEDF9" opacity="1.000000" stroke="none" 
	d="
M358.000000,211.531723 
	C351.776886,209.715378 347.421478,204.698380 342.210754,200.970596 
	C318.475830,183.990555 292.701935,171.359543 264.840759,162.714874 
	C255.491119,159.813904 245.679413,158.751740 236.180969,155.027496 
	C231.680283,149.993164 229.826584,140.845184 232.513672,136.838440 
	C235.337021,139.390274 238.634872,139.886444 241.913467,140.526596 
	C283.791077,148.703156 321.755524,165.725769 356.029480,191.074783 
	C356.570312,191.474777 357.012482,191.969711 357.727356,192.733734 
	C358.000000,199.021149 358.000000,205.042297 358.000000,211.531723 
z"/>
<path fill="#E9F4FB" opacity="1.000000" stroke="none" 
	d="
M1.292775,269.236511 
	C1.000000,263.977905 1.000000,258.955811 1.000000,253.466858 
	C6.348051,250.057037 10.339511,245.528793 14.413506,241.178116 
	C34.600616,219.619980 58.457638,203.228516 85.001343,190.550110 
	C101.451347,182.692871 118.651581,177.030746 136.379242,172.917023 
	C138.651520,172.389725 140.896591,171.782745 143.528687,171.129105 
	C148.259018,171.693726 150.482620,174.871033 152.599930,178.637741 
	C152.297501,183.360352 148.999115,184.057983 145.628479,184.724747 
	C129.752335,187.865341 114.296349,192.418091 99.368843,198.690170 
	C75.543427,208.700882 54.128021,222.469849 34.673386,239.494705 
	C25.861721,247.205841 18.041380,255.728714 10.491062,264.602356 
	C8.265050,267.218475 6.217978,270.925934 1.292775,269.236511 
z"/>
<path fill="#EDF5FB" opacity="1.000000" stroke="none" 
	d="
M1.000000,269.500000 
	C3.558961,269.373413 5.459698,268.319672 7.109918,266.417877 
	C11.998112,260.784454 16.671568,254.927490 21.931812,249.660095 
	C56.794662,214.749741 98.410248,192.378845 146.936813,183.147827 
	C149.719406,182.618530 150.996658,181.341782 152.093170,178.724976 
	C157.718002,180.305328 161.507706,184.470688 165.438766,188.862595 
	C163.952087,192.486938 160.767960,192.722992 157.891159,193.147873 
	C114.288422,199.587311 75.942261,217.300323 42.797581,246.380905 
	C36.035858,252.313522 29.479998,258.397400 23.797951,265.382446 
	C21.859173,267.765839 19.385592,269.379517 16.279186,270.749634 
	C11.500000,271.000000 6.999816,271.019501 2.500217,270.976990 
	C1.891688,270.971252 0.658142,271.596130 1.000000,269.500000 
z"/>
<path fill="#00B0EF" opacity="1.000000" stroke="none" 
	d="
M358.000000,34.531342 
	C350.995667,33.463718 344.714935,29.990988 338.096527,27.439936 
	C310.810669,16.922655 282.757721,9.440210 253.882660,4.825332 
	C248.976822,4.041270 243.761292,4.241487 239.085602,1.382221 
	C277.389618,1.000000 315.779266,1.031059 354.168671,0.937693 
	C357.062561,0.930655 358.202301,1.289329 358.102875,4.650345 
	C357.813110,14.446901 358.000000,24.257557 358.000000,34.531342 
z"/>
<path fill="#EFF6FC" opacity="1.000000" stroke="none" 
	d="
M16.464649,271.000000 
	C23.483572,263.359802 30.579268,255.284866 38.541065,248.180618 
	C50.668983,237.358994 63.690872,227.640579 77.830688,219.472168 
	C99.019661,207.231522 121.595383,198.852112 145.547791,193.884689 
	C151.952957,192.556351 158.868896,193.137482 164.902359,189.029526 
	C170.711411,190.417831 175.246536,194.032532 180.044861,197.527771 
	C179.145691,200.005112 177.307632,199.908524 175.433029,200.022934 
	C149.707214,201.592926 125.226677,208.207748 101.770210,218.666168 
	C84.276962,226.465790 68.157898,236.632584 53.196472,248.548340 
	C44.911705,255.146576 37.530895,262.783691 30.050135,270.665100 
	C25.643101,271.000000 21.286201,271.000000 16.464649,271.000000 
z"/>
<path fill="#CFE9F9" opacity="1.000000" stroke="none" 
	d="
M358.000000,192.533875 
	C355.320068,192.846848 353.396149,191.067642 351.447998,189.621613 
	C338.888916,180.299423 325.595978,172.164093 311.558685,165.324524 
	C288.050934,153.870514 263.424652,145.676163 237.658600,141.052490 
	C235.164703,140.604996 233.073700,140.104767 232.704468,136.698334 
	C231.169830,132.394150 232.521194,128.908951 234.436371,125.194290 
	C239.065750,128.270081 244.358887,128.709808 249.446869,129.805557 
	C288.722321,138.263870 324.641571,154.331070 357.713501,177.745178 
	C358.000000,182.689255 358.000000,187.378510 358.000000,192.533875 
z"/>
<path fill="#E5F1FA" opacity="1.000000" stroke="none" 
	d="
M144.909088,171.162567 
	C135.165298,174.336533 125.446640,177.019150 115.801361,179.943756 
	C88.671532,188.169907 64.176971,201.554688 41.455315,218.324112 
	C28.974560,227.535355 18.593779,239.023956 7.631525,249.876617 
	C5.979595,251.512039 4.502468,253.427811 1.381769,252.999542 
	C1.000000,248.975449 1.000000,244.950912 1.000000,240.463181 
	C10.403384,234.113647 16.969954,225.085327 25.379725,218.051071 
	C54.799362,193.443451 87.917137,176.175339 124.981071,166.407959 
	C128.824112,165.395218 132.822968,164.833740 136.658585,162.567062 
	C141.476120,163.496719 143.644028,166.736954 144.909088,171.162567 
z"/>
<path fill="#CEE8F9" opacity="1.000000" stroke="none" 
	d="
M1.299008,204.232788 
	C1.000000,199.975449 1.000000,195.950912 1.000000,191.463181 
	C13.383715,182.312622 25.035872,172.605682 38.118702,164.886871 
	C61.460590,151.115295 85.923912,139.994720 112.136757,132.909607 
	C114.621399,132.238022 116.879776,131.378555 118.746353,128.992828 
	C122.781822,130.746689 122.566254,134.807770 124.008041,138.391846 
	C123.784660,142.703583 120.659225,143.373383 117.771805,144.147171 
	C106.974907,147.040588 96.425682,150.656799 86.052292,154.802826 
	C57.811958,166.089890 32.126896,181.602448 9.000053,201.357468 
	C6.888808,203.160889 4.922217,205.476349 1.299008,204.232788 
z"/>
<path fill="#19C2F2" opacity="1.000000" stroke="none" 
	d="
M1.000000,101.399994 
	C5.356914,101.074448 8.310051,97.921112 11.689777,96.015892 
	C47.497559,75.830299 85.749931,62.607464 126.066101,54.999714 
	C154.819366,49.573906 183.917099,48.618664 212.908295,50.266979 
	C252.712280,52.530064 291.254242,61.569691 328.116577,77.086014 
	C337.902527,81.205185 347.538971,85.679436 357.622040,89.995316 
	C358.000000,91.066673 358.000000,92.133339 358.000000,93.600006 
	C355.383484,95.902756 353.190125,94.129890 351.074921,93.020569 
	C338.998138,86.686928 326.591827,81.087997 313.751190,76.518433 
	C296.053955,70.220543 278.057220,64.939980 259.583130,61.391659 
	C243.589996,58.319866 227.510284,56.260918 211.219040,55.210030 
	C164.314270,52.184387 118.786598,58.552689 74.295372,73.444099 
	C50.993088,81.243477 29.016115,91.839722 7.660017,103.845116 
	C5.777545,104.903351 4.064342,106.362709 1.338635,105.240631 
	C1.000000,103.933327 1.000000,102.866661 1.000000,101.399994 
z"/>
<path fill="#D5EBF9" opacity="1.000000" stroke="none" 
	d="
M1.000000,204.458069 
	C6.591245,204.094009 9.273954,199.317139 12.844001,196.420364 
	C26.287661,185.512039 40.531696,175.893188 55.727524,167.635162 
	C75.792450,156.731064 96.823448,148.277954 118.925743,142.495193 
	C120.629601,142.049393 122.647148,141.768631 123.083557,139.040405 
	C126.167534,140.270294 127.017555,143.265152 127.980179,146.584778 
	C127.498947,150.582596 124.455307,151.150848 121.792038,151.846207 
	C101.066521,157.257339 81.390869,165.240692 62.430733,175.191681 
	C42.841820,185.472733 25.110281,198.316742 8.517331,212.840729 
	C6.545616,214.566589 4.750731,216.841293 1.294671,215.236664 
	C1.000000,211.638718 1.000000,208.277420 1.000000,204.458069 
z"/>
<path fill="#6CCCF4" opacity="1.000000" stroke="none" 
	d="
M357.702606,111.696686 
	C358.000000,114.041664 358.000000,116.083336 358.000000,118.562500 
	C355.789093,120.706779 353.910187,119.323006 352.049469,118.296997 
	C317.986816,99.514297 281.756104,87.024094 243.364044,80.787613 
	C241.230026,80.440956 239.101151,80.103325 236.571533,80.239967 
	C235.978394,80.382576 235.744324,80.444984 235.154297,80.540863 
	C234.567017,80.543556 234.335678,80.512779 233.504395,80.175385 
	C232.732452,79.736130 232.560410,79.603477 231.885605,79.089935 
	C231.027451,78.496788 230.661804,78.304077 229.988693,78.031418 
	C227.720291,77.160202 225.750336,76.385094 223.605194,75.233337 
	C222.036972,74.143005 220.649887,74.271500 218.920395,74.811401 
	C217.727020,75.084030 216.841354,75.088005 215.619507,74.937378 
	C213.797043,74.482262 212.305466,74.014648 210.545044,75.175674 
	C209.108002,75.957397 207.889587,76.094933 206.246628,75.993118 
	C197.609451,74.003479 189.322342,73.613907 180.619537,75.557144 
	C179.213135,76.095016 178.139603,76.168648 176.647156,76.034683 
	C174.712509,75.497917 173.136124,75.305122 171.128387,75.260818 
	C167.051941,73.668495 162.528641,74.020752 159.997467,69.986954 
	C163.027573,67.931465 166.200653,67.667236 169.359009,67.580406 
	C201.931137,66.684967 234.313675,67.992905 266.195892,75.601242 
	C289.120026,81.071823 311.394348,88.384438 332.807068,98.268799 
	C341.260376,102.170944 349.958771,105.606956 357.702606,111.696686 
z"/>
<path fill="#BBE2F8" opacity="1.000000" stroke="none" 
	d="
M357.721375,158.726257 
	C358.000000,162.361282 358.000000,165.722580 358.000000,169.541931 
	C355.753479,171.422256 354.191589,169.699493 352.627594,168.667511 
	C324.737274,150.264465 294.658142,136.787613 262.311890,128.383484 
	C255.705002,126.666901 249.011063,125.345512 242.336380,123.932449 
	C239.897369,123.416092 237.301193,122.938431 236.789978,119.353867 
	C236.699692,117.007301 237.316101,115.229866 238.382965,113.184753 
	C240.135727,111.715080 241.799301,112.134384 243.429871,112.429367 
	C284.117798,119.790001 321.721497,134.903900 356.386810,157.394165 
	C356.803253,157.664352 357.116364,158.073624 357.721375,158.726257 
z"/>
<path fill="#C4E5F8" opacity="1.000000" stroke="none" 
	d="
M119.370758,128.337952 
	C119.400627,131.886627 117.316818,132.950317 114.694908,133.622818 
	C93.369164,139.092850 73.168961,147.406799 53.705315,157.631866 
	C36.914993,166.452515 21.194979,176.860367 6.604239,188.963226 
	C5.124404,190.190735 3.771580,191.241074 1.383572,190.999603 
	C1.000000,187.969406 1.000000,184.938812 1.000000,181.454102 
	C13.207789,172.975601 24.588255,163.748123 37.258656,156.384857 
	C59.345177,143.549515 82.558937,133.394455 107.112320,126.309326 
	C110.292076,125.391769 113.596909,124.769585 116.830368,122.828430 
	C119.655212,123.730614 119.921631,125.732971 119.370758,128.337952 
z"/>
<path fill="#49C6F3" opacity="1.000000" stroke="none" 
	d="
M357.684723,98.729202 
	C358.000000,99.750000 358.000000,100.500000 358.000000,101.625000 
	C355.161896,104.004532 352.867737,101.949783 350.648987,100.785812 
	C333.835205,91.965218 316.355255,84.760208 298.378113,78.688766 
	C279.112274,72.182114 259.230408,68.508301 239.194382,65.496445 
	C238.208817,65.348289 237.202591,65.413475 235.836578,65.664345 
	C234.961227,65.831093 234.459702,65.840477 233.603653,65.703606 
	C231.455276,64.429672 229.534851,63.988537 227.081985,64.712090 
	C226.255875,64.788643 225.782532,64.747887 224.969543,64.538940 
	C221.911331,62.760189 219.055557,63.222099 215.803406,63.943821 
	C214.314575,64.183784 213.228989,64.090546 211.756012,63.629219 
	C210.209305,62.715763 208.938721,62.446804 207.582138,62.443031 
	C195.332718,62.408970 183.083298,62.364777 170.834030,62.470802 
	C169.998474,62.478031 169.193588,62.660599 168.063156,63.234245 
	C166.663025,63.950092 165.566345,64.113419 164.042297,64.065010 
	C161.040237,63.477280 158.424744,62.656113 155.536285,64.360733 
	C154.545135,64.815071 153.840851,64.928543 152.770584,64.907867 
	C150.510605,64.487740 148.582336,63.797470 146.456024,65.306664 
	C145.745499,65.622017 145.313858,65.718147 144.538788,65.747940 
	C142.506027,65.349792 140.817368,65.070229 139.004120,66.484985 
	C138.222549,66.746490 137.749023,66.803085 136.895416,66.779755 
	C127.361885,66.928207 118.422142,68.775078 109.564423,70.791237 
	C82.082794,77.046478 55.782959,86.712631 30.573404,99.275009 
	C23.153429,102.972511 15.872766,106.984238 8.792724,111.338448 
	C6.588948,112.693756 4.557255,114.650887 1.320001,114.223053 
	C1.000000,113.250000 1.000000,112.500000 1.000000,111.375000 
	C6.714911,105.761993 13.599339,102.172127 20.448818,98.992416 
	C29.194811,94.932312 37.610592,90.232468 46.459229,86.346901 
	C62.785831,79.177666 79.505531,73.299675 96.687668,68.682182 
	C117.908043,62.979477 139.435181,59.191067 161.389145,57.434940 
	C178.208740,56.089523 195.068420,55.887444 211.777771,56.912819 
	C245.762344,58.998302 278.884308,66.027870 310.939209,77.832481 
	C326.880554,83.703087 342.521027,90.167534 357.684723,98.729202 
z"/>
<path fill="#7DD0F5" opacity="1.000000" stroke="none" 
	d="
M234.602661,80.822769 
	C235.485291,78.810646 236.520218,78.321793 238.610001,78.632042 
	C268.713806,83.101173 297.700012,91.337540 325.516327,103.731270 
	C335.370544,108.121902 345.079376,112.764229 354.428680,118.153671 
	C355.255219,118.630127 356.304657,118.719948 357.625275,118.994675 
	C358.000000,121.700012 358.000000,124.400032 358.000000,127.550018 
	C355.673096,129.498215 353.856201,127.893158 352.057648,126.883865 
	C318.150055,107.855843 282.126373,94.791504 243.744263,88.356209 
	C241.923798,88.050972 240.174484,87.605164 238.224518,86.496719 
	C236.146622,85.017639 235.075409,83.304466 234.602661,80.822769 
z"/>
<path fill="#E1EFFA" opacity="1.000000" stroke="none" 
	d="
M137.169434,162.376373 
	C135.953674,165.195770 133.677155,165.574310 131.359070,166.116638 
	C110.888321,170.905716 91.205849,178.036789 72.647202,187.819214 
	C49.020199,200.273224 27.495674,215.744781 9.135414,235.345428 
	C7.094311,237.524414 5.085647,239.845062 1.370426,239.994751 
	C1.000000,237.299988 1.000000,234.599976 1.000000,231.449982 
	C9.247121,225.592987 15.664940,218.060272 23.253284,211.874420 
	C53.633350,187.109207 87.727921,169.743759 125.696411,160.000183 
	C127.966820,159.417526 130.196945,158.782516 132.366989,157.048462 
	C135.945770,157.037323 136.584946,159.532501 137.169434,162.376373 
z"/>
<path fill="#56C8F3" opacity="1.000000" stroke="none" 
	d="
M211.589935,62.724274 
	C213.068283,62.996956 214.134369,62.997269 215.600250,62.997162 
	C218.772263,63.209282 221.597900,62.536701 224.663528,63.747810 
	C225.446106,63.996872 225.890076,63.997044 226.667023,63.996964 
	C228.798996,64.135391 230.655914,63.670448 232.694763,64.755112 
	C233.446152,64.996826 233.890121,64.997017 234.667038,64.996971 
	C248.253250,66.023643 261.266815,68.562454 274.137054,71.712616 
	C302.390594,78.628052 329.298309,89.135910 354.992157,102.764847 
	C355.879272,103.235405 356.799164,103.616989 357.715759,104.720215 
	C358.000000,105.750000 358.000000,106.500000 358.000000,107.625000 
	C355.081818,109.592972 352.860199,107.529259 350.636322,106.367844 
	C332.612732,96.955025 313.990448,89.005348 294.591248,82.876854 
	C267.678467,74.374725 240.171661,69.316269 211.993988,67.277626 
	C194.846832,66.037025 177.807144,66.628563 160.719162,67.511284 
	C158.854828,67.607597 157.097397,67.874054 155.126709,69.029137 
	C154.310547,69.539963 153.803131,69.738304 152.870071,69.916298 
	C152.211533,69.968834 151.949310,69.966476 151.302612,69.915863 
	C148.495712,69.253510 146.072510,68.985527 143.297821,69.996284 
	C140.056900,71.349480 136.919479,71.425598 133.525436,72.148941 
	C126.342636,71.391487 119.890366,73.408287 113.437553,74.886879 
	C75.624245,83.551399 40.006592,97.666359 7.043212,118.264519 
	C5.383916,119.301384 3.871665,120.798859 1.317663,120.222626 
	C1.000000,118.933327 1.000000,117.866661 1.000000,116.399994 
	C28.855930,98.431519 58.589718,85.004745 90.172211,75.693504 
	C105.258057,71.245850 120.550056,67.719368 136.608185,65.998764 
	C137.443909,65.996719 137.887833,65.996826 138.664703,65.996635 
	C140.205276,64.769180 141.769577,65.066940 143.624512,64.999252 
	C144.443954,64.996742 144.887894,64.996918 145.664810,64.996864 
	C147.529495,63.571098 149.442093,64.142410 151.609344,63.998756 
	C152.749451,63.996902 153.498886,63.997112 154.623047,63.996902 
	C157.200226,62.294094 159.775299,63.276314 162.587845,62.998444 
	C164.066071,62.996960 165.132172,62.997189 166.598053,62.997032 
	C167.531601,62.583939 168.125000,62.164524 168.782959,62.161888 
	C182.915436,62.105259 197.052231,61.506626 211.589935,62.724274 
z"/>
<path fill="#DAEDF9" opacity="1.000000" stroke="none" 
	d="
M1.000000,215.449982 
	C7.080771,215.302948 9.740725,209.983704 13.402289,206.840561 
	C34.344761,188.863327 57.765156,175.063980 82.870895,163.865143 
	C95.625992,158.175507 108.901566,154.116089 122.298073,150.348083 
	C124.153603,149.826187 126.323906,149.616608 127.146751,146.891846 
	C129.523880,147.294159 130.037537,149.378815 130.812592,151.696228 
	C130.548065,156.373138 127.167610,157.292603 123.929100,158.086609 
	C109.980583,161.506393 96.495544,166.249405 83.379387,172.060547 
	C55.896015,184.237137 31.007500,200.340347 9.202950,221.116318 
	C7.111667,223.108948 5.256279,225.930664 1.293776,224.236450 
	C1.000000,221.299988 1.000000,218.599976 1.000000,215.449982 
z"/>
<path fill="#C4E5F8" opacity="1.000000" stroke="none" 
	d="
M237.675690,118.813797 
	C237.711487,123.051376 241.293121,122.403885 243.253555,122.758377 
	C257.954803,125.416809 272.300140,129.348236 286.383026,134.261673 
	C310.789459,142.776932 333.663300,154.374619 355.157562,168.716339 
	C355.837341,169.169907 356.583801,169.523499 357.649597,169.961853 
	C358.000000,172.370560 358.000000,174.741104 358.000000,177.555832 
	C355.540466,178.408264 353.930969,176.669373 352.218048,175.493454 
	C328.917572,159.498123 303.757263,147.289688 276.932312,138.500275 
	C264.646545,134.474762 252.056549,131.545212 239.359909,129.180359 
	C236.844299,128.711807 235.911301,127.793999 235.459473,125.272720 
	C234.033829,122.891457 234.859528,121.083282 236.315262,119.078209 
	C236.856689,118.762787 237.101562,118.690491 237.675690,118.813797 
z"/>
<path fill="#2CC4F3" opacity="1.000000" stroke="none" 
	d="
M1.000000,105.375000 
	C5.354407,105.072731 8.308809,101.923973 11.683733,100.015587 
	C41.679440,83.054184 73.398148,70.519394 106.906860,62.580173 
	C122.523628,58.880093 138.356812,56.485935 154.354523,54.850395 
	C169.093781,53.343521 183.821762,52.672043 198.590408,53.050175 
	C222.807327,53.670216 246.699570,56.949127 270.360626,62.189621 
	C283.980682,65.206215 297.360016,69.187317 310.477600,73.664490 
	C324.974304,78.612389 339.140411,84.775146 352.614502,92.277168 
	C354.053345,93.078293 355.481781,94.014999 357.622070,93.994919 
	C358.000000,95.066673 358.000000,96.133339 358.000000,97.600006 
	C356.337891,98.403839 355.125885,97.301018 353.844421,96.637596 
	C325.369659,81.896370 295.332184,71.431931 264.111816,64.438881 
	C252.663406,61.874542 240.976639,60.386219 229.316650,58.801254 
	C216.260971,57.026569 203.164276,56.714657 190.115265,56.733601 
	C177.066055,56.752541 163.990448,57.266930 150.912277,58.711464 
	C126.590019,61.397949 102.904495,66.581070 79.650909,73.933952 
	C64.595192,78.694626 49.971714,84.586983 35.763599,91.528740 
	C25.294048,96.643936 14.967251,102.001167 4.965083,107.976273 
	C3.891182,108.617805 2.872592,108.956627 1.338404,108.238892 
	C1.000000,107.250000 1.000000,106.500000 1.000000,105.375000 
z"/>
<path fill="#A6DBF6" opacity="1.000000" stroke="none" 
	d="
M1.308374,164.234680 
	C1.000000,161.299988 1.000000,158.599976 1.000000,155.449982 
	C33.313374,132.060608 68.407104,114.945526 106.701195,104.530663 
	C108.971169,103.913300 111.230820,103.387550 113.874084,104.502884 
	C116.323990,110.802254 115.436310,112.624748 109.103485,114.361176 
	C75.324501,123.623093 43.869953,137.917938 14.913161,157.664978 
	C12.441236,159.350723 10.133041,161.266541 7.592713,162.845627 
	C5.781610,163.971436 4.000257,165.377533 1.308374,164.234680 
z"/>
<path fill="#A6DBF6" opacity="1.000000" stroke="none" 
	d="
M357.705078,142.737610 
	C358.000000,145.700012 358.000000,148.400024 358.000000,151.550018 
	C355.341034,153.498169 353.549133,151.379944 351.711761,150.258911 
	C333.461639,139.124039 314.303314,129.903687 294.226593,122.568108 
	C278.552765,116.841232 262.473633,112.614456 246.112457,109.407150 
	C243.377167,108.870941 240.347153,108.852921 238.915634,105.254425 
	C238.618317,103.488159 238.682190,102.134636 239.323334,100.451035 
	C241.158646,98.431229 243.176193,98.775536 245.135956,99.143257 
	C284.563538,106.541458 321.631317,120.160698 355.876221,141.206757 
	C356.445770,141.556778 356.921143,142.025391 357.705078,142.737610 
z"/>
<path fill="#B2DFF7" opacity="1.000000" stroke="none" 
	d="
M1.000000,164.449982 
	C4.510639,164.229034 6.856727,161.845322 9.345877,160.040817 
	C27.671026,146.756027 47.356674,135.918518 68.169434,127.095413 
	C81.901253,121.274109 95.932945,116.285378 110.439819,112.776031 
	C114.690041,111.747864 113.980324,108.757736 113.992157,105.425934 
	C112.476761,103.298401 112.561897,101.242477 112.714005,98.750412 
	C113.154785,96.356689 113.454674,94.369736 114.529739,92.176010 
	C115.296913,91.548012 115.839775,91.441376 116.795090,91.699219 
	C118.400360,94.144066 117.552727,96.457130 117.149727,98.679611 
	C116.402275,102.801704 116.306068,106.913361 116.682449,111.449600 
	C116.764175,113.089058 116.320366,114.334648 116.708130,115.963242 
	C116.751114,116.849396 116.665367,117.344917 116.285034,118.145828 
	C113.379250,120.599464 110.057159,121.216278 106.884598,122.121788 
	C71.513336,132.217545 39.003555,148.104630 9.442152,170.024017 
	C7.139267,171.731583 5.111521,174.386490 1.298347,173.231689 
	C1.000000,170.299988 1.000000,167.599976 1.000000,164.449982 
z"/>
<path fill="#BBE2F8" opacity="1.000000" stroke="none" 
	d="
M1.000000,173.444168 
	C3.982125,173.194946 5.858968,171.109726 7.931835,169.535934 
	C23.326601,157.847687 39.874355,148.025894 57.171543,139.491638 
	C75.845596,130.278046 95.643456,124.011627 115.907333,117.921432 
	C118.305321,118.507187 117.994263,120.061676 117.575829,121.919861 
	C117.011795,124.578156 115.414452,125.450325 113.298180,125.987267 
	C93.591118,130.987259 74.745522,138.388885 56.544338,147.314026 
	C38.779469,156.025253 22.275301,166.869965 6.629902,178.984589 
	C5.126148,180.149002 3.779694,181.256577 1.384698,180.999542 
	C1.000000,178.629440 1.000000,176.258896 1.000000,173.444168 
z"/>
<path fill="#8DD5F6" opacity="1.000000" stroke="none" 
	d="
M237.468842,85.438530 
	C247.178268,88.568733 257.302979,89.371414 267.082825,91.735619 
	C297.463562,99.079903 326.044830,110.754814 353.213928,126.069229 
	C354.507965,126.798637 355.924500,127.310814 357.641968,127.962082 
	C358.000000,130.370560 358.000000,132.741104 358.000000,135.555832 
	C355.844635,137.449966 354.188019,135.937744 352.534698,134.970673 
	C321.661682,116.911804 288.626953,104.517014 253.679657,97.085884 
	C249.285172,96.151443 244.781525,95.872864 240.088654,94.501175 
	C238.044556,91.711281 236.953796,88.961372 237.468842,85.438530 
z"/>
<path fill="#41C5F2" opacity="1.000000" stroke="none" 
	d="
M1.000000,108.375000 
	C7.037634,106.829842 11.703886,102.853317 16.827879,99.942665 
	C32.060062,91.290092 48.043697,84.331886 64.344971,78.080902 
	C87.957573,69.026276 112.412018,62.964859 137.376709,59.240192 
	C150.455887,57.288807 163.650223,55.767384 176.962662,55.953812 
	C185.040421,56.066936 193.114899,55.762032 201.206680,55.899670 
	C229.886826,56.387497 257.889862,61.058208 285.450287,68.703239 
	C308.577484,75.118523 330.838562,83.805161 352.249847,94.652084 
	C354.020996,95.549355 355.676666,96.674583 357.692993,97.846954 
	C358.000000,98.000000 358.000000,98.500000 358.000000,98.750000 
	C355.673920,99.234352 353.844818,97.937004 351.941742,96.959000 
	C323.884979,82.540466 294.308472,72.250961 263.575165,65.502190 
	C248.422134,62.174725 233.015259,60.071266 217.464859,58.805111 
	C200.652985,57.436230 183.840485,57.595493 167.106842,58.256332 
	C148.126297,59.005913 129.302368,62.168732 110.751816,66.576180 
	C91.557228,71.136642 72.746086,76.766319 54.536366,84.509842 
	C37.275524,91.849854 20.463089,99.972107 4.446586,109.734322 
	C3.605684,110.246857 2.627245,110.533737 1.356419,110.962837 
	C1.000000,110.250000 1.000000,109.500000 1.000000,108.375000 
z"/>
<path fill="#99D8F6" opacity="1.000000" stroke="none" 
	d="
M113.693893,97.740105 
	C113.987473,100.033646 113.990913,102.075478 113.991501,104.554260 
	C104.960518,104.919266 96.882080,108.872551 88.579636,111.479576 
	C74.177528,116.001938 60.232292,121.931061 46.741375,128.728333 
	C32.953156,135.675369 19.768324,143.716263 7.093110,152.557098 
	C5.444210,153.707184 3.872118,154.928986 1.373755,154.995026 
	C1.000000,152.629440 1.000000,150.258896 1.000000,147.444168 
	C22.977888,132.611511 45.472427,119.199112 70.170372,109.860909 
	C82.450981,105.217644 94.878189,101.054939 107.581581,97.735733 
	C109.482140,97.239151 111.418915,96.490738 113.693893,97.740105 
z"/>
<path fill="#99D8F6" opacity="1.000000" stroke="none" 
	d="
M239.792633,94.338684 
	C251.853638,94.280411 262.995636,97.631737 274.145233,100.642204 
	C297.944214,107.068077 320.754089,116.109871 342.496338,127.771965 
	C347.457153,130.432831 352.358521,133.204605 357.643616,135.962677 
	C358.000000,138.041672 358.000000,140.083328 358.000000,142.562500 
	C352.401276,142.072800 348.225861,138.239609 343.531189,135.598160 
	C321.389954,123.140358 297.968964,113.908569 273.559326,107.127167 
	C262.886383,104.162033 252.123749,101.461746 240.701569,99.967331 
	C238.376511,98.458427 238.599731,96.618088 239.792633,94.338684 
z"/>
<path fill="#B2DFF7" opacity="1.000000" stroke="none" 
	d="
M239.205093,104.398895 
	C240.029099,107.137848 242.498428,107.527061 244.742645,107.917610 
	C269.980560,112.309692 294.110504,120.093376 317.470398,130.619980 
	C331.259430,136.833679 344.201721,144.486496 357.647766,151.961594 
	C358.000000,154.041672 358.000000,156.083328 358.000000,158.562500 
	C350.306976,156.546631 344.179291,151.250137 337.255432,147.406830 
	C317.147827,136.245499 296.045227,127.635384 274.078003,120.998634 
	C262.830811,117.600616 251.325104,115.338829 239.424805,113.005020 
	C238.306641,112.599892 237.879059,111.973732 237.505127,110.858780 
	C237.491898,108.421120 237.539154,106.357101 239.205093,104.398895 
z"/>
<path fill="#DEEEFA" opacity="1.000000" stroke="none" 
	d="
M1.000000,224.437500 
	C3.311866,224.266968 5.082667,223.465500 6.775249,221.785202 
	C28.012220,200.702148 52.739979,184.674149 79.781464,172.175690 
	C93.658546,165.761780 108.015884,160.514984 122.948280,156.988052 
	C125.798317,156.314865 129.039352,156.073074 130.063934,152.034729 
	C132.307526,152.099106 133.003006,153.789413 133.395416,156.009171 
	C133.039307,159.894012 130.125351,160.261230 127.615784,160.886261 
	C107.267136,165.954254 87.687004,173.114883 69.185966,182.978058 
	C50.880730,192.736862 33.632843,204.079422 18.219316,218.123154 
	C14.301959,221.692368 10.300977,225.170090 6.584516,228.950653 
	C5.217989,230.340775 3.764416,231.239777 1.381772,230.999542 
	C1.000000,228.958328 1.000000,226.916672 1.000000,224.437500 
z"/>
<path fill="#8DD5F6" opacity="1.000000" stroke="none" 
	d="
M114.142288,97.644295 
	C103.764267,99.477921 94.019341,102.788589 84.325783,106.118706 
	C69.721321,111.135902 55.429909,116.976868 41.712975,124.132614 
	C30.079523,130.201462 18.836582,136.916794 8.007824,144.335342 
	C6.151071,145.607361 4.410360,147.434204 1.386588,146.999954 
	C1.000000,144.958328 1.000000,142.916672 1.000000,140.437500 
	C23.911854,124.382523 48.272678,111.568008 74.306641,101.955147 
	C85.240059,97.918060 96.320114,94.388161 107.660355,91.693298 
	C109.902580,91.160469 112.158844,90.299828 114.742294,91.731979 
	C114.896141,93.787315 115.300224,95.636665 114.142288,97.644295 
z"/>
<path fill="#5FC9F3" opacity="1.000000" stroke="none" 
	d="
M154.196167,69.129257 
	C154.845551,66.179489 157.309875,66.155907 159.291611,66.084290 
	C176.333878,65.468483 193.316574,64.532791 210.445618,65.754471 
	C233.461044,67.395966 256.063354,70.822746 278.346283,76.635521 
	C304.313538,83.409386 329.076935,93.250603 352.750092,105.869858 
	C354.209961,106.648056 355.767517,107.242905 357.639832,107.961533 
	C358.000000,109.066673 358.000000,110.133339 358.000000,111.600006 
	C349.646545,109.101143 342.302948,104.129944 334.293976,100.467995 
	C307.412567,88.176964 279.495972,79.523132 250.500595,73.924072 
	C223.221497,68.656441 195.698502,68.746460 168.132721,69.046158 
	C165.671906,69.072906 163.217316,69.670746 160.318024,70.020798 
	C159.671463,70.164886 159.466705,70.291519 158.902206,70.450188 
	C157.118164,70.301430 155.658920,70.257652 154.196167,69.129257 
z"/>
<path fill="#7FD1F5" opacity="1.000000" stroke="none" 
	d="
M115.268768,92.005707 
	C103.821304,92.916786 93.339767,96.778847 82.853699,100.284485 
	C65.985741,105.923653 49.733627,113.129341 34.003490,121.480080 
	C24.759184,126.387657 15.874383,131.884750 7.098697,137.565628 
	C5.415497,138.655228 3.872219,139.928513 1.373741,139.994873 
	C1.000000,138.285645 1.000000,136.571289 1.000000,134.428467 
	C8.993568,127.058472 18.462969,122.420593 27.589190,117.319733 
	C54.058804,102.525223 82.189018,91.919090 111.690750,84.944168 
	C113.928375,84.415131 116.163452,83.454948 118.852623,84.643799 
	C119.844894,87.516121 118.900551,89.712257 116.938309,91.862442 
	C116.203857,91.990311 115.863937,91.996727 115.268768,92.005707 
z"/>
<path fill="#6CCCF4" opacity="1.000000" stroke="none" 
	d="
M1.314102,129.225433 
	C1.000000,127.285645 1.000000,125.571281 1.000000,123.428467 
	C14.538385,114.223602 28.535574,106.244537 43.200443,99.520988 
	C67.298515,88.472496 92.274544,79.986420 118.245155,74.517448 
	C120.853554,73.968163 123.435844,73.277496 126.442993,74.381233 
	C127.685745,78.777550 124.083145,79.798668 121.379028,81.854568 
	C99.440964,85.274971 79.021149,92.385704 58.917587,100.560265 
	C41.113415,107.799850 24.257135,116.852982 7.980549,127.034660 
	C6.056204,128.238419 4.241277,129.959702 1.314102,129.225433 
z"/>
<path fill="#74CEF4" opacity="1.000000" stroke="none" 
	d="
M1.000000,129.416656 
	C8.139942,126.514008 13.956564,121.670410 20.403156,117.964600 
	C50.171055,100.852539 81.906380,88.915939 115.279144,81.173515 
	C117.016602,80.770424 118.926826,81.112061 121.236839,81.167923 
	C121.622765,82.758171 120.877357,83.908691 119.311371,84.881210 
	C104.513054,87.328720 90.640671,91.847450 76.858131,96.600311 
	C51.786304,105.246254 28.435350,117.437263 6.045505,131.550903 
	C4.654207,132.427917 3.157861,133.138306 1.355194,133.963104 
	C1.000000,132.611115 1.000000,131.222214 1.000000,129.416656 
z"/>
<path fill="#5FC9F3" opacity="1.000000" stroke="none" 
	d="
M127.679642,75.157806 
	C117.530968,74.831566 108.345680,78.035789 99.135658,80.570877 
	C75.206787,87.157364 52.045452,95.892067 30.067970,107.518990 
	C22.144884,111.710594 14.459170,116.354416 6.712614,120.873260 
	C5.125561,121.799049 3.687407,122.942650 1.374353,122.994743 
	C1.000000,122.250000 1.000000,121.500000 1.000000,120.375000 
	C9.363014,115.992760 16.959141,110.648842 25.139053,106.283211 
	C42.607296,96.960388 60.691349,89.230820 79.458099,82.982948 
	C94.873062,77.850967 110.521309,73.715706 126.516258,70.830315 
	C128.584030,70.457298 130.403320,70.740456 132.726135,71.024277 
	C132.659790,73.943153 130.331787,74.569008 127.679642,75.157806 
z"/>
<path fill="#4FC7F3" opacity="1.000000" stroke="none" 
	d="
M136.734711,65.716202 
	C127.841812,67.969498 118.681519,69.932625 109.525894,71.917259 
	C89.025993,76.360962 69.289597,83.153358 50.077942,91.487137 
	C34.667843,98.171844 19.701502,105.737564 5.460788,114.692986 
	C4.379368,115.373047 2.993197,115.568504 1.374341,115.994614 
	C1.000000,115.555557 1.000000,115.111107 1.000000,114.333328 
	C7.819784,110.260872 14.646835,106.534927 21.458105,102.780350 
	C52.228645,85.818756 84.943550,74.173843 119.391449,67.510048 
	C124.965240,66.431808 130.620453,64.778976 136.734711,65.716202 
z"/>
<path fill="#4FC7F3" opacity="1.000000" stroke="none" 
	d="
M358.000000,104.625000 
	C348.817078,100.737488 339.689148,96.351357 330.440674,92.236130 
	C304.717529,80.790298 277.963593,72.701538 250.201996,67.975227 
	C245.324127,67.144806 240.436951,66.369064 235.277039,65.282402 
	C238.717361,62.312916 242.457321,64.839844 245.998413,65.317215 
	C284.010773,70.441528 319.655853,82.896690 353.509521,100.734146 
	C354.656311,101.338394 355.994904,101.578568 357.622070,101.994217 
	C358.000000,102.750000 358.000000,103.500000 358.000000,104.625000 
z"/>
<path fill="#2E2E2F" opacity="1.000000" stroke="none" 
	d="
M127.160431,75.380066 
	C129.163498,73.947769 130.998398,72.807510 132.975983,71.355675 
	C136.310699,71.278877 139.150101,69.894356 142.497284,69.005829 
	C145.278015,68.082085 147.749527,68.674942 150.621246,68.703667 
	C151.209717,68.931091 151.361572,69.008865 151.764008,69.034668 
	C154.000137,70.252182 156.344849,68.914894 158.702454,69.885941 
	C159.029678,69.912827 159.450912,69.989838 159.663574,70.014038 
	C162.862015,72.331261 166.686218,72.506706 170.332794,74.041046 
	C172.199265,74.712952 173.840927,74.851440 175.752197,75.347870 
	C177.732300,75.361992 179.311340,75.914810 181.285095,76.038803 
	C182.288284,76.325394 182.905777,76.636002 183.813965,77.121155 
	C185.538452,78.306999 187.045090,79.231346 188.440964,80.799652 
	C189.123886,81.722496 189.560608,82.427910 190.269470,83.307053 
	C190.587143,83.692520 190.715012,83.845840 191.049484,84.206635 
	C191.767578,84.827133 192.265762,84.829758 192.941238,84.111404 
	C194.501511,81.177574 196.681824,79.295601 199.443970,77.512787 
	C201.438705,76.086227 203.277496,75.198204 205.800629,75.255341 
	C207.287445,75.126846 208.428650,74.995171 209.804260,74.611160 
	C211.135284,72.775177 212.751114,73.804832 214.536026,73.683319 
	C216.050842,73.863197 217.141327,73.909409 218.636230,73.885422 
	C220.528671,73.328239 222.033142,73.464401 223.752213,74.099945 
	C226.016815,75.342491 228.069366,76.181374 230.467804,77.020386 
	C231.100113,77.204346 231.370636,77.409157 231.806152,77.814484 
	C231.987030,77.994057 231.995941,78.005783 232.002731,78.008667 
	C232.167618,78.172844 232.325699,78.334145 232.737396,78.720062 
	C232.991013,78.944679 232.990570,79.008644 233.022552,79.007980 
	C233.235352,79.266098 233.454636,79.486610 233.917236,79.782242 
	C234.122101,79.895599 234.268143,80.258080 234.439301,80.347458 
	C235.465363,81.861526 236.320251,83.286217 237.420776,84.893669 
	C238.416794,87.802711 239.167175,90.528984 240.031219,93.627434 
	C240.147202,95.705429 240.149506,97.411240 240.223145,99.534538 
	C240.026413,101.125282 239.758331,102.298553 239.505127,103.825180 
	C239.065201,106.198204 238.610382,108.217873 238.195297,110.615486 
	C239.297379,113.590950 237.346786,115.862968 237.187790,118.692719 
	C236.369614,120.781487 235.803299,122.533302 235.235733,124.632774 
	C234.340576,128.496674 233.446671,132.012909 232.580276,135.902451 
	C230.702209,139.398483 231.804337,142.313644 232.944702,145.397247 
	C234.017548,148.298264 234.538971,151.403198 235.547668,154.705444 
	C235.880920,156.133636 235.969482,157.274796 236.154053,158.834930 
	C236.409027,159.566956 236.474411,159.899612 236.393951,160.499817 
	C236.469147,162.260529 236.609024,163.770676 236.874207,165.638580 
	C236.769318,168.457062 236.539108,170.917786 236.331055,173.784271 
	C236.443878,174.566635 236.470184,174.948196 236.299591,175.585526 
	C235.346207,178.584290 234.534683,181.331512 233.570755,184.435425 
	C231.493927,189.137512 228.743744,192.874588 224.998428,196.273407 
	C216.395905,202.932480 206.470963,203.566132 196.633774,202.768372 
	C191.267731,202.333221 186.085831,199.627182 180.427582,197.918854 
	C175.171509,195.093521 169.851013,193.023087 165.446686,188.824493 
	C161.013382,185.371155 156.926239,182.037079 152.535553,178.523346 
	C149.936188,176.202118 147.640381,174.060547 145.097519,171.731201 
	C142.872086,168.357651 140.782822,165.263168 137.425812,162.841522 
	C136.013580,160.768066 134.938293,158.788147 133.590256,156.579453 
	C132.436829,154.900543 131.556168,153.450409 130.398590,151.826675 
	C129.336884,150.087585 128.552078,148.522095 127.502144,146.731445 
	C126.067482,144.032455 124.897926,141.558609 123.441071,138.869568 
	C121.998306,135.496887 120.842850,132.339432 119.417130,128.927170 
	C118.703835,126.744858 118.260803,124.817329 117.606064,122.571136 
	C117.187515,120.946388 116.980675,119.640297 116.537781,118.094894 
	C116.293152,117.427841 116.284576,117.000122 116.119263,116.291260 
	C115.428047,115.357155 115.523872,114.582085 115.614090,113.447220 
	C114.402092,106.250702 115.225105,99.502556 116.467339,92.375076 
	C117.328415,89.897598 118.113052,87.811310 118.934502,85.353882 
	C119.766190,83.925117 120.561058,82.867485 121.536491,81.519363 
	C123.475464,79.376617 125.233864,77.524353 127.160431,75.380066 
z"/>
<path fill="#99D8F6" opacity="1.000000" stroke="none" 
	d="
M236.497620,160.643860 
	C236.251526,160.416946 236.173813,160.083511 236.173065,159.502014 
	C236.895630,159.517441 236.939224,159.976059 236.497620,160.643860 
z"/>
<path fill="#A6DBF6" opacity="1.000000" stroke="none" 
	d="
M236.330627,175.717834 
	C236.135605,175.458054 236.113480,175.079041 236.222290,174.445038 
	C236.986145,174.597366 236.904587,175.080933 236.330627,175.717834 
z"/>
<path fill="#74CEF4" opacity="1.000000" stroke="none" 
	d="
M205.970947,75.010727 
	C204.493698,76.185692 202.841187,77.112862 200.860916,78.059845 
	C195.283142,80.072067 189.991364,80.345535 184.175751,78.280449 
	C183.206924,77.987923 182.709656,77.880409 182.081192,77.550697 
	C181.604736,76.306290 180.256714,76.618942 179.904877,75.385391 
	C180.705811,73.458000 182.012115,72.921608 183.648758,73.008629 
	C191.046127,73.401939 198.604218,71.771759 205.970947,75.010727 
z"/>
<path fill="#99D8F6" opacity="1.000000" stroke="none" 
	d="
M176.259918,75.522369 
	C174.349884,75.329704 172.730392,74.984200 170.901123,74.342201 
	C172.295654,74.152206 173.899979,74.258698 175.793991,74.636505 
	C176.239273,75.061729 176.394852,75.215637 176.259918,75.522369 
z"/>
<path fill="#A6DBF6" opacity="1.000000" stroke="none" 
	d="
M176.342987,75.790176 
	C175.969391,75.675201 176.018112,75.291229 176.050903,75.099518 
	C177.125961,74.942352 178.168243,74.976883 179.602509,75.028687 
	C180.583054,75.609123 181.171600,76.172287 181.855072,77.031967 
	C180.205521,76.854050 178.461044,76.379608 176.342987,75.790176 
z"/>
<path fill="#99D8F6" opacity="1.000000" stroke="none" 
	d="
M214.696548,73.574036 
	C213.592316,73.952957 212.224243,74.088943 210.447418,74.291885 
	C211.099350,72.289024 212.812378,73.008156 214.696548,73.574036 
z"/>
<path fill="#99D8F6" opacity="1.000000" stroke="none" 
	d="
M223.820404,74.161789 
	C222.595047,74.320221 221.225800,74.136833 219.448624,73.884331 
	C220.587143,72.655746 222.132492,72.596794 223.820404,74.161789 
z"/>
<path fill="#99D8F6" opacity="1.000000" stroke="none" 
	d="
M231.876358,77.747726 
	C231.671417,77.834930 231.355789,77.675797 230.926941,77.268585 
	C231.131027,77.180809 231.448364,77.341110 231.876358,77.747726 
z"/>
<path fill="#99D8F6" opacity="1.000000" stroke="none" 
	d="
M232.898193,78.724716 
	C232.654999,78.895439 232.391663,78.730293 232.105286,78.230392 
	C232.341019,78.069138 232.606308,78.233536 232.898193,78.724716 
z"/>
<path fill="#99D8F6" opacity="1.000000" stroke="none" 
	d="
M233.983673,79.699707 
	C233.826630,79.755447 233.531143,79.615288 233.145111,79.241226 
	C233.382919,79.069420 233.646500,79.234917 233.983673,79.699707 
z"/>
<path fill="#DAEDF9" opacity="1.000000" stroke="none" 
	d="
M237.203156,119.022064 
	C237.294022,116.618492 237.652100,114.207306 238.122589,111.394775 
	C238.481537,111.474731 238.728043,111.956032 238.996811,112.715485 
	C238.685059,114.741661 238.351013,116.489700 238.010956,118.623581 
	C237.826736,119.011093 237.648544,119.012772 237.203156,119.022064 
z"/>
<path fill="#4FC7F3" opacity="1.000000" stroke="none" 
	d="
M211.907272,62.602135 
	C197.313324,62.997540 182.624466,62.998436 167.466705,62.997986 
	C167.273544,60.888550 168.858200,61.001518 170.379105,61.001617 
	C183.188568,61.002445 195.998047,60.998936 208.807510,61.008518 
	C209.952026,61.009377 211.191162,60.857361 211.907272,62.602135 
z"/>
<path fill="#4FC7F3" opacity="1.000000" stroke="none" 
	d="
M224.915192,63.615242 
	C222.193268,63.791294 219.340271,64.463409 216.282959,63.284523 
	C218.983459,61.559685 221.940781,61.095997 224.915192,63.615242 
z"/>
<path fill="#4FC7F3" opacity="1.000000" stroke="none" 
	d="
M162.725922,62.715069 
	C160.841904,64.918480 158.230927,63.612999 155.427567,63.997810 
	C156.804184,60.240849 159.864029,62.462578 162.725922,62.715069 
z"/>
<path fill="#4FC7F3" opacity="1.000000" stroke="none" 
	d="
M232.928101,64.634483 
	C231.177292,64.850601 229.352402,64.704559 227.263748,64.277618 
	C229.019806,62.634090 230.995926,62.199528 232.928101,64.634483 
z"/>
<path fill="#4FC7F3" opacity="1.000000" stroke="none" 
	d="
M151.745209,63.722916 
	C150.526657,65.667084 148.555557,64.758575 146.402008,64.997894 
	C147.059341,61.750275 149.413391,63.091377 151.745209,63.722916 
z"/>
<path fill="#4FC7F3" opacity="1.000000" stroke="none" 
	d="
M143.759537,64.728500 
	C142.861084,66.470917 141.226959,65.856674 139.384933,65.997658 
	C139.686218,63.074657 141.666733,63.956196 143.759537,64.728500 
z"/>
<path fill="#99D8F6" opacity="1.000000" stroke="none" 
	d="
M158.766571,69.643646 
	C156.822083,70.465767 154.719681,69.837708 152.310089,69.161682 
	C152.457703,68.986832 152.900803,68.990959 153.667633,68.914246 
	C155.495392,69.013756 156.999435,69.194115 158.766571,69.643646 
z"/>
<path fill="#99D8F6" opacity="1.000000" stroke="none" 
	d="
M150.763733,68.593689 
	C148.636551,68.907776 146.215256,68.962234 143.336884,68.971642 
	C145.295425,67.264824 147.904327,68.078743 150.763733,68.593689 
z"/>
<path fill="#BBE2F8" opacity="1.000000" stroke="none" 
	d="
M115.497810,113.289078 
	C115.795898,113.803032 115.902443,114.534317 115.985748,115.637863 
	C114.989220,115.373329 114.863724,114.514305 115.497810,113.289078 
z"/>
<path fill="#FBFBFB" opacity="1.000000" stroke="none" 
	d="
M210.342575,157.087051 
	C206.654587,161.326950 202.709274,164.678314 196.854889,165.032623 
	C188.346909,165.547531 183.393295,161.556717 181.865448,153.165970 
	C180.417282,145.212769 182.345947,137.625519 183.882080,129.975922 
	C186.340881,117.731628 189.284988,105.614311 194.193207,94.082024 
	C199.192932,82.334793 209.561722,76.869942 222.079803,79.206764 
	C229.363617,80.566467 234.070358,85.682198 234.889847,93.143082 
	C234.980774,93.970909 235.040802,94.803436 235.079819,95.635445 
	C235.645782,107.707825 232.252609,110.579369 220.500641,108.197990 
	C218.871765,107.867928 218.715759,107.208160 218.927917,105.882599 
	C219.242554,103.916565 219.651764,101.938538 219.680695,99.960640 
	C219.718307,97.388252 219.254395,94.778412 216.272537,93.987030 
	C213.063217,93.135292 210.737289,94.655144 209.344696,97.490166 
	C208.469437,99.271988 207.725601,101.162598 207.240280,103.084572 
	C203.985718,115.973091 200.769821,128.871902 197.653580,141.794434 
	C196.915131,144.856613 196.022156,148.607147 200.039185,149.881424 
	C204.027039,151.146454 206.665527,148.538452 208.104080,144.946457 
	C209.151962,142.330017 209.933655,139.606613 210.823853,136.927505 
	C211.737228,134.178619 212.422821,131.619415 207.874893,132.194290 
	C206.253571,132.399216 205.872101,131.405167 206.369919,129.984375 
	C206.480072,129.669998 206.625900,129.362915 206.693329,129.039536 
	C208.874893,118.575737 208.873764,118.575508 219.450211,118.575508 
	C220.783463,118.575508 222.116714,118.575485 223.449966,118.575500 
	C231.934143,118.575638 231.908035,118.569046 229.885529,126.581345 
	C227.120224,137.536255 224.421021,148.507874 221.645340,159.460114 
	C220.892960,162.428787 212.773285,164.828110 210.615005,162.674911 
	C209.372528,161.435364 210.445404,159.851593 210.727844,157.966980 
	C210.865570,157.510910 210.584702,157.113007 210.342575,157.087051 
z"/>
<path fill="#FAF9FA" opacity="1.000000" stroke="none" 
	d="
M160.127808,164.201874 
	C143.886246,166.418304 133.832397,153.900482 138.702454,138.219910 
	C139.211914,136.579575 139.926285,136.061966 141.453461,136.170975 
	C142.115677,136.218246 142.784500,136.164032 143.449844,136.178116 
	C146.432129,136.241226 150.119186,135.256195 152.213715,136.654266 
	C154.698135,138.312576 152.228027,142.126770 152.628998,145.014618 
	C152.930573,147.186630 152.741623,149.457001 155.428070,150.250900 
	C158.291534,151.097076 160.376297,149.753159 161.732513,147.463364 
	C164.728577,142.404846 165.435806,136.839554 164.517258,131.110489 
	C163.993835,127.845772 161.475266,126.387978 158.481155,126.087021 
	C156.066376,125.844307 155.743240,124.809395 156.398117,122.817017 
	C156.759811,121.716690 157.033920,120.576637 157.228119,119.434196 
	C157.894089,115.516014 158.864975,112.866837 164.093719,112.576294 
	C170.795929,112.203857 175.645966,102.021416 172.924377,95.844383 
	C172.259277,94.334816 171.055191,93.324333 169.520920,93.283501 
	C167.335739,93.225349 165.145752,94.649895 164.855057,96.457802 
	C163.587509,104.341515 157.794052,102.727119 152.593536,103.012199 
	C148.759171,103.222382 147.866318,102.435539 148.885483,98.425186 
	C152.351746,84.785637 162.891342,78.000481 176.679352,80.974915 
	C182.225906,82.171448 186.042450,85.266273 187.316116,90.879448 
	C189.142120,98.926903 188.502075,106.735237 184.114090,113.934624 
	C181.866745,117.621864 178.304077,119.760101 174.369965,121.403030 
	C187.322800,133.771057 177.834854,163.135971 160.127808,164.201874 
z"/>
<path fill="#F3F3F3" opacity="1.000000" stroke="none" 
	d="
M141.970490,81.055634 
	C148.434509,75.256180 155.122910,73.724953 161.906326,76.359238 
	C148.162598,81.535995 144.305923,93.017105 142.495422,105.901665 
	C142.194397,108.044022 143.315018,108.103043 144.697174,108.120682 
	C148.005295,108.162903 151.314316,108.134315 154.974228,108.134315 
	C153.238007,115.199501 151.595428,121.883636 149.735931,129.450455 
	C143.137421,118.216064 138.406281,107.409241 138.024429,95.068878 
	C137.870041,90.079903 139.020126,85.523819 141.970490,81.055634 
z"/>
<path fill="#F3F3F3" opacity="1.000000" stroke="none" 
	d="
M197.473541,173.637726 
	C195.563919,172.365829 193.357681,172.328735 192.132294,170.638947 
	C201.930237,169.099045 211.659851,167.543411 221.563339,168.297424 
	C223.733643,168.462662 224.760788,167.667099 225.258865,165.363586 
	C226.478363,159.723923 228.073685,154.165527 229.839508,147.328568 
	C231.916397,156.459610 232.570129,164.311172 227.319138,171.233368 
	C222.053131,178.175339 214.407257,177.945923 206.823883,176.639389 
	C203.748459,176.109528 200.812180,174.772156 197.473541,173.637726 
z"/>
<path fill="#7FD1F5" opacity="1.000000" stroke="none" 
	d="
M183.880798,78.391380 
	C188.977646,78.077438 194.251099,78.059448 200.028870,78.060562 
	C198.576126,80.357933 195.002121,81.037994 193.954529,84.714287 
	C192.824387,85.780716 191.843506,85.883186 190.483292,85.134117 
	C190.193146,84.863388 189.972076,84.600624 189.973099,84.428940 
	C189.658691,83.574005 189.355286,82.882736 188.550049,82.189629 
	C187.381546,80.287346 185.478333,79.803009 183.880798,78.391380 
z"/>
<path fill="#A6DBF6" opacity="1.000000" stroke="none" 
	d="
M190.237366,85.186241 
	C191.126648,84.904938 192.060150,84.946487 193.344025,84.972153 
	C192.869614,87.071777 191.825180,87.831245 190.237366,85.186241 
z"/>
<path fill="#C4E5F8" opacity="1.000000" stroke="none" 
	d="
M179.131531,162.017120 
	C177.951782,161.987350 176.674164,161.901291 177.407822,160.508347 
	C177.925446,159.525543 178.745331,160.187698 179.346527,161.234711 
	C179.450424,161.551331 179.333374,161.956329 179.131531,162.017120 
z"/>
<path fill="#A6DBF6" opacity="1.000000" stroke="none" 
	d="
M188.432709,82.256691 
	C189.259964,82.170891 189.943024,82.573959 189.974762,83.936905 
	C189.483200,83.683632 188.992279,83.110001 188.432709,82.256691 
z"/>
<path fill="#C4E5F8" opacity="1.000000" stroke="none" 
	d="
M179.317230,161.679993 
	C179.721146,162.039261 180.433762,162.700150 178.995590,162.311447 
	C178.929688,162.077911 179.184021,161.808640 179.317230,161.679993 
z"/>
<path fill="#99D8F6" opacity="1.000000" stroke="none" 
	d="
M210.249039,157.246155 
	C210.199265,156.844620 210.298065,156.628128 210.396881,156.411652 
	C210.607361,156.681656 210.817825,156.951660 210.946930,157.366287 
	C210.865570,157.510910 210.397629,157.431229 210.249039,157.246155 
z"/>
</svg>